<svg width="24" height="18" viewBox="0 0 24 18" fill="none" xmlns="http://www.w3.org/2000/svg">
<path d="M18.7528 17.463H14.8737H13.8292H13.6036V12.2599H15.3053C15.7368 12.2599 15.9918 11.7695 15.7368 11.4164L12.4266 6.83613C12.2158 6.54189 11.7793 6.54189 11.5685 6.83613L8.25827 11.4164C8.00327 11.7695 8.25337 12.2599 8.68982 12.2599H10.3915V17.463H10.1659H9.12137H4.62444C2.04986 17.3208 0 14.913 0 12.3041C0 10.5043 0.975889 8.93503 2.42256 8.08664C2.29015 7.72865 2.2215 7.34614 2.2215 6.94402C2.2215 5.10503 3.7074 3.61913 5.54638 3.61913C5.9436 3.61913 6.32611 3.68778 6.6841 3.82019C7.74826 1.56437 10.0433 0 12.7111 0C16.1635 0.00490397 19.0078 2.64814 19.3314 6.01717C21.9845 6.47324 24 8.93012 24 11.7107C24 14.6825 21.6853 17.2571 18.7528 17.463Z" fill="white"/>
</svg>
