<svg width="23" height="23" viewBox="0 0 23 23" fill="none" xmlns="http://www.w3.org/2000/svg">
<ellipse cx="11.335" cy="11.333" rx="10.335" ry="10.333" fill="#FEFEFE" fill-opacity="0.56"/>
<path d="M11.335 22.166C17.3189 22.166 22.17 17.316 22.17 11.333C22.17 5.35002 17.3189 0.5 11.335 0.5C5.35109 0.5 0.5 5.35002 0.5 11.333C0.5 17.316 5.35109 22.166 11.335 22.166Z" stroke="white" stroke-opacity="0.6"/>
<path d="M10.456 13.2209V13.1009C10.459 12.5438 10.5114 12.1006 10.6129 11.7713C10.7176 11.442 10.8653 11.1773 11.0561 10.9773C11.2469 10.7741 11.4793 10.5879 11.7532 10.4187C11.9409 10.3017 12.1087 10.174 12.2564 10.0355C12.4072 9.89394 12.5257 9.73698 12.6119 9.56463C12.698 9.3892 12.7411 9.19377 12.7411 8.97834C12.7411 8.7352 12.6842 8.52438 12.5703 8.34588C12.4564 8.16738 12.3026 8.02888 12.1087 7.9304C11.9179 7.83191 11.704 7.78267 11.467 7.78267C11.2485 7.78267 11.0407 7.83037 10.8438 7.92578C10.6499 8.01811 10.4883 8.15968 10.359 8.3505C10.2328 8.53823 10.1621 8.77675 10.1467 9.06605H8.5032C8.51858 8.4813 8.66016 7.99195 8.92791 7.59801C9.19875 7.20407 9.55575 6.90862 9.99893 6.71165C10.4452 6.51468 10.9376 6.41619 11.4762 6.41619C12.064 6.41619 12.5811 6.51929 13.0273 6.7255C13.4767 6.9317 13.826 7.22562 14.0753 7.60724C14.3277 7.9858 14.4538 8.43513 14.4538 8.95526C14.4538 9.30611 14.3969 9.62003 14.283 9.89702C14.1722 10.174 14.0137 10.4202 13.8075 10.6357C13.6013 10.8511 13.3567 11.0434 13.0735 11.2127C12.8242 11.3666 12.6196 11.5266 12.4595 11.6928C12.3026 11.859 12.1856 12.0545 12.1087 12.2791C12.0348 12.5007 11.9963 12.7746 11.9933 13.1009V13.2209H10.456ZM11.2592 16.1016C10.9822 16.1016 10.7437 16.0031 10.5437 15.8061C10.3436 15.6091 10.2436 15.3691 10.2436 15.0859C10.2436 14.8089 10.3436 14.572 10.5437 14.375C10.7437 14.178 10.9822 14.0795 11.2592 14.0795C11.5331 14.0795 11.7701 14.178 11.9702 14.375C12.1733 14.572 12.2749 14.8089 12.2749 15.0859C12.2749 15.2737 12.2272 15.4445 12.1317 15.5984C12.0394 15.7522 11.9163 15.8754 11.7624 15.9677C11.6116 16.0569 11.4439 16.1016 11.2592 16.1016Z" fill="#60769D"/>
</svg>
