<svg width="69" height="69" viewBox="0 0 69 69" fill="none" xmlns="http://www.w3.org/2000/svg">
<ellipse cx="34.4104" cy="34.5" rx="34.4104" ry="34.5" fill="#60769D"/>
<path d="M34.4059 15.028C35.3873 15.028 36.2613 15.4267 37.0279 16.224C37.7946 16.9907 38.1779 18.0947 38.1779 19.536C38.1779 20.8547 38.0246 22.342 37.7179 23.998C37.4113 25.654 37.0433 27.448 36.6139 29.38C36.1846 31.2813 35.8013 33.29 35.4639 35.406C35.1266 37.522 34.9119 39.7147 34.8199 41.984H33.9919C33.9306 39.7147 33.7159 37.522 33.3479 35.406C33.0106 33.29 32.6273 31.2813 32.1979 29.38C31.7993 27.448 31.4313 25.654 31.0939 23.998C30.7873 22.342 30.6339 20.8547 30.6339 19.536C30.6339 18.0947 30.9866 16.9907 31.6919 16.224C32.4279 15.4267 33.3326 15.028 34.4059 15.028ZM34.4059 44.56C35.6019 44.56 36.5526 44.882 37.2579 45.526C37.9633 46.1393 38.3159 46.998 38.3159 48.102C38.3159 49.206 37.9633 50.08 37.2579 50.724C36.5526 51.3373 35.6019 51.644 34.4059 51.644C33.2099 51.644 32.2593 51.3373 31.5539 50.724C30.8486 50.08 30.4959 49.206 30.4959 48.102C30.4959 46.998 30.8486 46.1393 31.5539 45.526C32.2593 44.882 33.2099 44.56 34.4059 44.56Z" fill="white"/>
</svg>
